<svg width="24" height="24" viewBox="0 0 24 24" fill="none" xmlns="http://www.w3.org/2000/svg">
<path d="M20.25 3H3.75C2.09315 3 0.75 4.34315 0.75 6V18C0.75 19.6569 2.09315 21 3.75 21H20.25C21.9069 21 23.25 19.6569 23.25 18V6C23.25 4.34315 21.9069 3 20.25 3Z" fill="white"/>
<path d="M1.22852 4.3845H22.7715C22.2383 3.5535 21.3113 3 20.25 3H3.75002C2.68952 3 1.76252 3.5535 1.22852 4.3845Z" fill="#A62842"/>
<path d="M1.5225 5.76904C1.5165 5.84629 1.5 5.92054 1.5 6.00004V7.15429H23.25V6.00004C23.25 5.92129 23.2335 5.84704 23.2275 5.76904H1.5225Z" fill="#A62842"/>
<path d="M1.5 8.53882H23.25V9.92332H1.5V8.53882Z" fill="#A62842"/>
<path d="M1.5 11.3076H23.25V12.6921H1.5V11.3076Z" fill="#A62842"/>
<path d="M0.75 14.0767H23.25V15.4612H0.75V14.0767Z" fill="#A62842"/>
<path d="M0.75 18C0.75 18.0787 0.76725 18.153 0.77325 18.231H23.2267C23.2327 18.1537 23.25 18.0795 23.25 18V16.8457H0.75V18Z" fill="#A62842"/>
<path d="M22.7715 19.6155H1.22852C1.76177 20.4465 2.68877 21 3.75002 21H20.25C21.3105 21 22.2375 20.4465 22.7715 19.6155Z" fill="#A62842"/>
<path d="M3.75 3H12V12.6923H0.75V6C0.75 4.344 2.094 3 3.75 3Z" fill="#102D5E"/>
<path opacity="0.15" d="M20.25 3H3.75C2.09325 3 0.75 4.34325 0.75 6V18C0.75 19.6568 2.09325 21 3.75 21H20.25C21.9068 21 23.25 19.6568 23.25 18V6C23.25 4.34325 21.9068 3 20.25 3ZM22.5 18C22.5 19.2405 21.4905 20.25 20.25 20.25H3.75C2.5095 20.25 1.5 19.2405 1.5 18V6C1.5 4.7595 2.5095 3.75 3.75 3.75H20.25C21.4905 3.75 22.5 4.7595 22.5 6V18Z" fill="black"/>
<path opacity="0.2" d="M20.25 3.75H3.75C2.50725 3.75 1.5 4.75725 1.5 6V6.75C1.5 5.50725 2.50725 4.5 3.75 4.5H20.25C21.4927 4.5 22.5 5.50725 22.5 6.75V6C22.5 4.75725 21.4927 3.75 20.25 3.75Z" fill="white"/>
<path d="M3.45048 5.59717L3.89448 5.27467H3.34623L3.17673 4.75342L3.00723 5.27467H2.45898L2.90223 5.59717L2.73273 6.11842L3.17673 5.79667L3.61998 6.11842L3.45048 5.59717Z" fill="white"/>
<path d="M5.68486 5.59717L6.12886 5.27467H5.58061L5.41111 4.75342L5.24161 5.27467H4.69336L5.13661 5.59717L4.96711 6.11842L5.41111 5.79667L5.85436 6.11842L5.68486 5.59717Z" fill="white"/>
<path d="M7.91998 5.59717L8.36323 5.27467H7.81498L7.64548 4.75342L7.47598 5.27467H6.92773L7.37098 5.59717L7.20223 6.11842L7.64548 5.79667L8.08873 6.11842L7.91998 5.59717Z" fill="white"/>
<path d="M4.54961 6.96216L4.99361 6.64041H4.44536L4.27586 6.11841L4.10636 6.64041H3.55811L4.00136 6.96216L3.83186 7.48416L4.27586 7.16166L4.71911 7.48416L4.54961 6.96216Z" fill="white"/>
<path d="M6.78473 6.96216L7.22798 6.64041H6.67973L6.51023 6.11841L6.34073 6.64041H5.79248L6.23573 6.96216L6.06698 7.48416L6.51023 7.16166L6.95348 7.48416L6.78473 6.96216Z" fill="white"/>
<path d="M9.01862 6.96216L9.46187 6.64041H8.91362L8.74412 6.11841L8.57462 6.64041H8.02637L8.47037 6.96216L8.30087 7.48416L8.74412 7.16166L9.18812 7.48416L9.01862 6.96216Z" fill="white"/>
<path d="M4.54961 9.69312L4.99361 9.37062H4.44536L4.27586 8.84937L4.10636 9.37062H3.55811L4.00136 9.69312L3.83186 10.2144L4.27586 9.89262L4.71911 10.2144L4.54961 9.69312Z" fill="white"/>
<path d="M6.78473 9.69312L7.22798 9.37062H6.67973L6.51023 8.84937L6.34073 9.37062H5.79248L6.23573 9.69312L6.06698 10.2144L6.51023 9.89262L6.95348 10.2144L6.78473 9.69312Z" fill="white"/>
<path d="M9.01862 9.69312L9.46187 9.37062H8.91362L8.74412 8.84937L8.57462 9.37062H8.02637L8.47037 9.69312L8.30087 10.2144L8.74412 9.89262L9.18812 10.2144L9.01862 9.69312Z" fill="white"/>
<path d="M10.1544 5.59717L10.5976 5.27467H10.0494L9.87986 4.75342L9.71036 5.27467H9.16211L9.60611 5.59717L9.43661 6.11842L9.87986 5.79667L10.3239 6.11842L10.1544 5.59717Z" fill="white"/>
<path d="M3.45048 8.32812L3.89448 8.00562H3.34623L3.17673 7.48438L3.00723 8.00562H2.45898L2.90223 8.32812L2.73273 8.84937L3.17673 8.52688L3.61998 8.84937L3.45048 8.32812Z" fill="white"/>
<path d="M5.68486 8.32812L6.12886 8.00562H5.58061L5.41111 7.48438L5.24161 8.00562H4.69336L5.13661 8.32812L4.96711 8.84937L5.41111 8.52688L5.85436 8.84937L5.68486 8.32812Z" fill="white"/>
<path d="M7.91998 8.32812L8.36323 8.00562H7.81498L7.64548 7.48438L7.47598 8.00562H6.92773L7.37098 8.32812L7.20223 8.84937L7.64548 8.52688L8.08873 8.84937L7.91998 8.32812Z" fill="white"/>
<path d="M10.1544 8.32812L10.5976 8.00562H10.0494L9.87986 7.48438L9.71036 8.00562H9.16211L9.60611 8.32812L9.43661 8.84937L9.87986 8.52688L10.3239 8.84937L10.1544 8.32812Z" fill="white"/>
<path d="M3.45048 11.0579L3.89448 10.7361H3.34623L3.17673 10.2141L3.00723 10.7361H2.45898L2.90223 11.0579L2.73273 11.5799L3.17673 11.2574L3.61998 11.5799L3.45048 11.0579Z" fill="white"/>
<path d="M5.68486 11.0579L6.12886 10.7361H5.58061L5.41111 10.2141L5.24161 10.7361H4.69336L5.13661 11.0579L4.96711 11.5799L5.41111 11.2574L5.85436 11.5799L5.68486 11.0579Z" fill="white"/>
<path d="M7.91998 11.0579L8.36323 10.7361H7.81498L7.64548 10.2141L7.47598 10.7361H6.92773L7.37098 11.0579L7.20223 11.5799L7.64548 11.2574L8.08873 11.5799L7.91998 11.0579Z" fill="white"/>
<path d="M10.1544 11.0579L10.5976 10.7361H10.0494L9.87986 10.2141L9.71036 10.7361H9.16211L9.60611 11.0579L9.43661 11.5799L9.87986 11.2574L10.3239 11.5799L10.1544 11.0579Z" fill="white"/>
</svg>
