<svg width="80" height="72" viewBox="0 0 80 72" fill="none" xmlns="http://www.w3.org/2000/svg">
<g filter="url(#filter0_f_197_33121)">
<path d="M40.0629 15.1492C28.9331 15.1492 19.9105 24.1718 19.9105 35.3016C19.9105 35.9812 19.9441 36.653 20.0098 37.3153H60.116C60.1817 36.653 60.2153 35.9812 60.2153 35.3016C60.2153 24.1718 51.1927 15.1492 40.0629 15.1492Z" fill="#CA8A04"/>
<path d="M66.1539 30.0778C64.4148 29.7355 62.73 29.7889 61.4436 29.9972C61.7941 31.4143 62.0074 32.8855 62.0685 34.396L67.5127 34.3485C68.0339 34.344 68.4601 34.7629 68.4647 35.2842C68.4692 35.8054 68.0504 36.2316 67.5291 36.2362L62.065 36.2839C62.0498 36.6298 62.0267 36.9737 61.9957 37.3153H71.8102C72.3474 36.7128 72.8362 36.0122 73.2586 35.1999C72.0142 32.9055 70.246 31.5291 68.367 30.7438C67.928 30.5603 67.4829 30.409 67.037 30.2859C66.7422 30.2044 66.4472 30.1355 66.1539 30.0778Z" fill="#FACC15"/>
<path fill-rule="evenodd" clip-rule="evenodd" d="M40.1894 0.00381019C40.1613 0.00130624 40.1331 -1.94284e-05 40.1052 2.15185e-07C40.0772 -1.64883e-05 40.0491 0.00130317 40.021 0.00381019C40.0187 0.00401132 40.0164 0.00408615 40.0141 0.0043018C39.9313 0.0123237 39.8485 0.0316852 39.7678 0.0626805C39.76 0.0656558 39.7522 0.0687187 39.7445 0.0718981C39.7413 0.0731961 39.7382 0.0745782 39.735 0.0759517L39.7311 0.0776746C39.7209 0.082081 39.7105 0.0865513 39.7005 0.0913167L39.6958 0.093529C36.9337 1.42346 35.1915 3.39465 34.1459 5.51488C32.3747 3.97986 30.0278 2.84652 26.9976 2.67657C26.9967 2.67652 26.9957 2.67646 26.9948 2.67645H26.9937C26.9932 2.67644 26.9927 2.67635 26.9922 2.67632C26.9815 2.67579 26.9707 2.67551 26.9599 2.67534C26.9547 2.67525 26.9495 2.6751 26.9443 2.67509C26.9377 2.6751 26.931 2.67526 26.9244 2.67546L26.9185 2.67559L26.9121 2.67583C26.9063 2.67597 26.9004 2.67602 26.8946 2.67632C26.8909 2.67652 26.8871 2.67694 26.8833 2.67718C26.8096 2.68191 26.7379 2.69503 26.6695 2.7159L26.6684 2.71622C26.6667 2.71675 26.6649 2.71728 26.6632 2.71786C26.6626 2.71809 26.6619 2.71838 26.6613 2.7186C26.6606 2.71883 26.6599 2.71906 26.6592 2.71928L26.6582 2.71959C26.6329 2.72765 26.6079 2.73664 26.5836 2.74675C26.5588 2.75698 26.5344 2.76838 26.5105 2.78079L26.51 2.78105C26.5088 2.78166 26.5076 2.78229 26.5064 2.78288L26.5055 2.78332C26.504 2.7841 26.5024 2.7849 26.5009 2.78571C26.4369 2.8198 26.3762 2.86179 26.3201 2.91144C26.3183 2.91303 26.3163 2.91462 26.3145 2.91623C26.3079 2.92223 26.3014 2.92856 26.2949 2.93479L26.2935 2.9361C26.2882 2.94111 26.2829 2.94612 26.2778 2.95126C26.2762 2.95285 26.2746 2.9545 26.2731 2.95614L26.2707 2.95863L26.2676 2.9617L26.2669 2.96246C26.2593 2.97022 26.2517 2.97802 26.2445 2.98604L26.241 2.98985C24.2484 5.21927 23.3861 7.64098 23.2013 9.94785C20.982 9.21336 18.3871 9.06829 15.5313 10.0678L15.4961 10.0812C15.4913 10.0831 15.4863 10.0849 15.4816 10.0868C15.4736 10.0901 15.4657 10.0938 15.4578 10.0973C15.4506 10.1005 15.4432 10.1037 15.4361 10.1071C15.4327 10.1087 15.4293 10.1105 15.426 10.1122C15.3597 10.1447 15.2985 10.1843 15.2432 10.2298C15.2402 10.2323 15.2372 10.235 15.2342 10.2375C15.2139 10.2547 15.1943 10.2726 15.1757 10.2912C15.157 10.3099 15.1391 10.3294 15.1219 10.3497C15.1194 10.3528 15.1167 10.3558 15.1142 10.3588C15.0684 10.4145 15.0286 10.4762 14.9958 10.5431C14.9946 10.5457 14.9932 10.5483 14.9919 10.5509C14.9886 10.5578 14.9855 10.5649 14.9824 10.5719L14.9809 10.5754L14.9807 10.5756C14.9776 10.5828 14.9744 10.5899 14.9714 10.5971C14.9695 10.6016 14.9678 10.6063 14.966 10.6108L14.9645 10.6145C14.9609 10.6236 14.9572 10.6328 14.9539 10.642L14.9522 10.6469C13.9279 13.5735 14.1056 16.226 14.8879 18.4812C12.5582 18.6334 10.102 19.4716 7.83199 21.4652C7.8313 21.4658 7.83056 21.4664 7.8299 21.467L7.82916 21.4679L7.82805 21.4688C7.82002 21.476 7.81211 21.4833 7.80433 21.4907C7.80057 21.4943 7.79659 21.4978 7.7929 21.5014C7.78818 21.5061 7.78359 21.5109 7.77901 21.5157L7.77496 21.52L7.77041 21.5246C7.76636 21.5288 7.76228 21.533 7.75837 21.5373C7.75645 21.5394 7.75455 21.5415 7.75265 21.5437L7.75087 21.5457C7.7016 21.6007 7.6597 21.6603 7.62551 21.7231C7.62446 21.7251 7.62342 21.7271 7.62244 21.729L7.62158 21.731L7.6201 21.7338C7.60772 21.7573 7.59622 21.7812 7.58593 21.8055C7.57544 21.8301 7.56594 21.8554 7.55754 21.8811C7.55709 21.8824 7.55666 21.8839 7.55619 21.8852C7.55553 21.8872 7.55484 21.8892 7.55423 21.8911C7.53247 21.9603 7.51851 22.0328 7.5133 22.1076L7.51281 22.1148C7.51225 22.1238 7.512 22.1328 7.5117 22.1419C7.51143 22.1498 7.51116 22.1578 7.51109 22.1657C7.51106 22.1691 7.51117 22.1725 7.51121 22.1759V22.1803C7.51128 22.1915 7.51137 22.2026 7.51182 22.2138L7.51207 22.2189C7.65345 25.2057 8.73574 27.5373 10.2208 29.3122C8.12304 30.3439 6.17063 32.0593 4.83427 34.7739L4.81842 34.8082C4.81632 34.8129 4.81404 34.8176 4.81203 34.8223C4.80867 34.8302 4.8057 34.8384 4.80256 34.8464C4.79965 34.8538 4.79655 34.8612 4.79384 34.8686C4.79256 34.8722 4.79138 34.8758 4.79015 34.8793C4.7657 34.949 4.74975 35.0201 4.74222 35.0912C4.7418 35.0952 4.7416 35.0992 4.74124 35.1031C4.73878 35.1296 4.73739 35.1561 4.73718 35.1824C4.73693 35.2088 4.73789 35.2353 4.73988 35.2618C4.74019 35.2658 4.74027 35.2698 4.74062 35.2737C4.74696 35.3456 4.7618 35.4176 4.78536 35.4882C4.78628 35.491 4.78724 35.4938 4.78818 35.4966C4.79091 35.5045 4.79391 35.5125 4.79688 35.5204L4.7974 35.5218C4.80017 35.5291 4.80293 35.5366 4.80588 35.5439C4.8077 35.5484 4.80965 35.5529 4.81154 35.5574C4.81585 35.5676 4.82026 35.5779 4.82493 35.588L4.82714 35.5928C5.12109 36.2172 5.44798 36.7901 5.80217 37.3153H8.1872C7.65001 36.7128 7.16117 36.0122 6.73877 35.1999C7.98314 32.9055 9.7514 31.5291 11.6304 30.7438C12.0694 30.5603 12.5145 30.409 12.9603 30.2859C13.2552 30.2044 13.5501 30.1355 13.8435 30.0778C15.6387 29.7245 17.3759 29.7928 18.6769 30.0178C18.3294 31.429 18.1181 32.8936 18.0573 34.3971L12.4847 34.3485C11.9635 34.344 11.5373 34.7629 11.5327 35.2842C11.5282 35.8054 11.947 36.2316 12.4682 36.2362L18.0608 36.285C18.076 36.6306 18.0991 36.9741 18.13 37.3153H20.0098C19.9441 36.653 19.9105 35.9812 19.9105 35.3016C19.9105 24.1718 28.9331 15.1492 40.0629 15.1492C51.1927 15.1492 60.2153 24.1718 60.2153 35.3016C60.2153 35.9812 60.1817 36.653 60.116 37.3153H61.9957C62.0267 36.9737 62.0498 36.6298 62.065 36.2839L67.5291 36.2362C68.0504 36.2316 68.4692 35.8054 68.4647 35.2842C68.4601 34.7629 68.0339 34.344 67.5127 34.3485L62.0685 34.396C62.0074 32.8855 61.7941 31.4143 61.4436 29.9972C62.73 29.7889 64.4148 29.7355 66.1539 30.0778C66.4472 30.1355 66.7422 30.2044 67.037 30.2859C67.4829 30.409 67.928 30.5603 68.367 30.7438C70.246 31.5291 72.0142 32.9055 73.2586 35.1999C72.8362 36.0122 72.3474 36.7128 71.8102 37.3153H74.1952C74.5494 36.7901 74.8763 36.2172 75.1702 35.5928L75.1724 35.588C75.1771 35.5779 75.1815 35.5676 75.1858 35.5574L75.1869 35.5548C75.1885 35.5512 75.19 35.5475 75.1915 35.5439C75.1942 35.5371 75.1968 35.5302 75.1994 35.5233L75.2 35.5218L75.2023 35.5155C75.2047 35.5092 75.2071 35.5029 75.2093 35.4966C75.2103 35.4938 75.2111 35.491 75.212 35.4882C75.2356 35.4176 75.2504 35.3456 75.2568 35.2737C75.2571 35.2698 75.2572 35.2658 75.2575 35.2618C75.2595 35.2353 75.2604 35.2088 75.2602 35.1824C75.26 35.1561 75.2586 35.1296 75.2561 35.1031C75.2558 35.0992 75.2556 35.0952 75.2552 35.0912C75.2476 35.0201 75.2317 34.949 75.2072 34.8793C75.206 34.8758 75.2048 34.8722 75.2035 34.8686C75.2008 34.8612 75.1977 34.8538 75.1948 34.8464C75.1917 34.8384 75.1887 34.8302 75.1853 34.8223C75.1833 34.8176 75.1811 34.8129 75.179 34.8082L75.1631 34.7739C73.8267 32.0592 71.8742 30.3439 69.7764 29.3122C71.2615 27.5373 72.344 25.2057 72.4854 22.2189L72.4856 22.2138C72.4859 22.206 72.486 22.1982 72.4861 22.1904L72.4862 22.1803L72.4863 22.1759C72.4863 22.1734 72.4863 22.1709 72.4863 22.1684L72.4863 22.1657C72.4862 22.1578 72.4859 22.1498 72.4857 22.1419L72.4856 22.1382C72.4853 22.1304 72.485 22.1226 72.4846 22.1148L72.4841 22.1076C72.4789 22.0328 72.4649 21.9603 72.4431 21.8911C72.4425 21.8892 72.4418 21.8872 72.4412 21.8852C72.4409 21.8844 72.4406 21.8835 72.4404 21.8827L72.4398 21.8811C72.4314 21.8554 72.4219 21.8301 72.4114 21.8055C72.4012 21.7812 72.3897 21.7573 72.3773 21.7338L72.3758 21.731L72.3749 21.729C72.374 21.7271 72.3729 21.7251 72.3719 21.7231C72.3377 21.6603 72.2958 21.6007 72.2465 21.5457C72.244 21.5429 72.2415 21.5401 72.239 21.5373C72.2351 21.533 72.231 21.5288 72.227 21.5246L72.2224 21.52L72.2184 21.5157C72.2138 21.5109 72.2092 21.5061 72.2045 21.5014C72.2012 21.4982 72.1977 21.495 72.1944 21.4919L72.1932 21.4907C72.1854 21.4833 72.1774 21.476 72.1693 21.4688L72.1675 21.467C72.1668 21.4664 72.1661 21.4658 72.1654 21.4652C69.9462 19.5162 67.5491 18.6715 65.2661 18.4924C66.0703 16.2213 66.2633 13.5428 65.2278 10.5841L65.2261 10.5792C65.2223 10.5687 65.2181 10.5583 65.214 10.548L65.2123 10.5437C65.2111 10.5405 65.2099 10.5374 65.2086 10.5343C65.2056 10.527 65.2024 10.5198 65.1992 10.5126C65.1955 10.5044 65.192 10.4961 65.1882 10.4881C65.187 10.4855 65.1856 10.4829 65.1843 10.4803C65.1516 10.4134 65.1117 10.3517 65.0659 10.296C65.0634 10.293 65.0606 10.29 65.0581 10.2869C65.0409 10.2666 65.023 10.2471 65.0044 10.2284C64.9857 10.2098 64.9661 10.1918 64.9459 10.1747C64.9428 10.1722 64.9399 10.1695 64.9369 10.167C64.8816 10.1215 64.8204 10.0819 64.7541 10.0494C64.7508 10.0477 64.7473 10.0459 64.7439 10.0443C64.7383 10.0417 64.7326 10.0391 64.7269 10.0366L64.7222 10.0345L64.716 10.0317C64.7102 10.0291 64.7044 10.0265 64.6986 10.024C64.6938 10.0221 64.6889 10.0203 64.6841 10.0184L64.6487 10.005C61.7928 9.00547 59.1979 9.15052 56.9786 9.88504C56.7938 7.57819 55.9316 5.15646 53.939 2.92704L53.9355 2.92323C53.9283 2.91525 53.9207 2.90747 53.9132 2.89974L53.9124 2.8989L53.9095 2.89583C53.9071 2.89338 53.9046 2.89086 53.9022 2.88845C53.8966 2.88287 53.8909 2.87742 53.8851 2.87198L53.8801 2.86721C53.8753 2.86255 53.8704 2.8579 53.8655 2.85343C53.8637 2.85182 53.8617 2.85023 53.8599 2.84863C53.8039 2.79899 53.7431 2.75699 53.6791 2.7229C53.6776 2.72209 53.676 2.72129 53.6744 2.7205L53.6736 2.72008C53.6724 2.71946 53.6711 2.7188 53.6699 2.71816L53.6696 2.71799C53.6456 2.70558 53.6212 2.69418 53.5964 2.68394C53.5721 2.67384 53.5471 2.66485 53.5218 2.65678L53.5188 2.6558L53.5168 2.65506L53.5158 2.65473C53.5141 2.65412 53.5123 2.65351 53.5105 2.65297C53.4421 2.6321 53.3704 2.61911 53.2967 2.61438C53.2929 2.61414 53.2891 2.61372 53.2854 2.61352C53.2809 2.61329 53.2765 2.6132 53.272 2.61311L53.2679 2.61303L53.2615 2.61278L53.2556 2.61266L53.2513 2.61252C53.2461 2.61235 53.2409 2.61217 53.2357 2.61217C53.2305 2.61217 53.2253 2.61245 53.2201 2.61254C53.2093 2.6127 53.1985 2.61299 53.1878 2.61352L53.1863 2.61364H53.1824C50.1522 2.78359 47.8052 3.91693 46.034 5.45195C46.0564 5.49741 46.0783 5.54303 46.1001 5.58862C45.0587 3.44048 43.3087 1.43883 40.5147 0.093529L40.4803 0.0780433C40.4755 0.0759891 40.4708 0.0737468 40.466 0.0717752C40.4599 0.0692324 40.4536 0.0668465 40.4473 0.0644752L40.4419 0.0624347C40.4345 0.0595891 40.427 0.0566007 40.4196 0.0539544C40.4161 0.0527191 40.4124 0.051584 40.4089 0.0503902C40.3389 0.0265221 40.2675 0.0112032 40.1963 0.0043018C40.194 0.00408486 40.1916 0.00400975 40.1894 0.00381019ZM9.42849 22.5876C11.4739 20.9297 13.6544 20.3388 15.7066 20.3426C15.699 20.3279 15.6914 20.3131 15.6839 20.2983L15.6775 20.2858C15.7167 20.3596 15.7564 20.4328 15.7968 20.5054C17.0536 22.7669 18.8497 24.4782 20.3312 25.507C19.9007 26.3726 19.5257 27.2706 19.2104 28.1962C17.4378 27.8595 14.9549 27.7767 12.4578 28.4663C12.335 28.5002 12.2121 28.5362 12.0892 28.574C10.7031 27.11 9.65218 25.1581 9.42849 22.5876ZM59.7849 25.4879C61.2783 24.4642 63.1084 22.7366 64.3832 20.4426C64.395 20.4214 64.4067 20.4001 64.4184 20.3787L64.4367 20.3451L64.4375 20.3435C66.4467 20.3677 68.5721 20.9691 70.5689 22.5876C70.3452 25.1581 69.2942 27.11 67.9081 28.574C67.7852 28.5362 67.6624 28.5002 67.5396 28.4663C65.0987 27.7922 62.6714 27.8563 60.9078 28.1739C60.5917 27.2493 60.216 26.3524 59.7849 25.4879ZM16.5911 11.7066C19.0868 10.9423 21.3127 11.1999 23.2034 11.9568C23.6451 12.1336 24.0686 12.3378 24.4729 12.5625C24.7402 12.7111 24.999 12.8686 25.2487 13.0331C26.7869 14.046 27.9837 15.3227 28.7533 16.3996C27.4813 17.1623 26.2927 18.0497 25.2044 19.045L21.2861 15.1267C20.9175 14.7582 20.3199 14.7582 19.9513 15.1267C19.5827 15.4953 19.5827 16.0931 19.9513 16.4617L23.8668 20.3771C22.8856 21.4414 22.0081 22.6025 21.25 23.8447C20.0048 22.9478 18.501 21.4853 17.4469 19.5884C16.2606 17.4537 15.6482 14.7854 16.5911 11.7066ZM56.9766 11.894C58.8673 11.1371 61.0932 10.8795 63.5889 11.6438C64.5318 14.7226 63.9194 17.3909 62.7331 19.5256C61.6607 21.4554 60.1228 22.9353 58.8654 23.8277C58.1086 22.5902 57.2331 21.4333 56.2547 20.3727L60.2287 16.3989C60.5973 16.0303 60.5973 15.4325 60.2287 15.0639C59.8601 14.6953 59.2625 14.6954 58.8939 15.0639L54.9169 19.0408C53.8316 18.0489 52.6468 17.1643 51.379 16.4035C52.1465 15.313 53.3611 14.0043 54.9313 12.9703C55.181 12.8058 55.4398 12.6482 55.7072 12.4997C56.1114 12.275 56.5349 12.0708 56.9766 11.894ZM46.7871 7.32437C48.2474 5.88718 50.2143 4.78403 52.8305 4.53338C54.4726 6.52352 55.0911 8.65226 55.1285 10.6679C55.0144 10.7271 54.9016 10.7877 54.7902 10.8496C52.4705 12.1387 50.7298 13.9955 49.7106 15.4979C48.9029 15.1036 48.0674 14.7574 47.208 14.4628C47.5372 12.684 47.6068 10.1768 46.8885 7.66174C46.8564 7.54928 46.8225 7.43684 46.7871 7.32437ZM25.0515 10.7307C25.0889 8.71506 25.7074 6.58633 27.3495 4.59618C29.9705 4.8473 31.9399 5.95407 33.401 7.39516C33.3736 7.48401 33.3473 7.5729 33.3219 7.66174C32.6074 10.1638 32.6723 12.6583 32.9971 14.4354C32.1127 14.7348 31.2537 15.0892 30.4237 15.4938C29.3985 14.0035 27.6752 12.1824 25.3898 10.9124C25.2784 10.8505 25.1656 10.7899 25.0515 10.7307ZM35.5622 6.9591C36.3566 5.04784 37.7571 3.24884 40.1052 2.00171C42.949 3.51206 44.4028 5.83179 45.0734 8.18014C45.6754 10.2883 45.6392 12.4074 45.3859 13.9255C43.975 13.5753 42.5105 13.3612 41.0069 13.2978V7.74003C41.0069 7.21877 40.5843 6.79619 40.063 6.79614C39.5417 6.79614 39.1191 7.21873 39.1191 7.74003V13.2978C37.6442 13.36 36.2068 13.5668 34.8209 13.9052C34.6116 12.6371 34.5544 10.9545 34.8915 9.21031C34.9576 8.86842 35.0389 8.5241 35.1371 8.18014C35.254 7.7709 35.3946 7.36247 35.5622 6.9591Z" fill="#422006"/>
<path d="M63.5889 11.6438C61.0932 10.8795 58.8673 11.1371 56.9766 11.894C56.5349 12.0708 56.1114 12.275 55.7072 12.4997C55.4398 12.6482 55.181 12.8058 54.9313 12.9703C53.3611 14.0043 52.1465 15.313 51.379 16.4035C52.6468 17.1643 53.8316 18.0489 54.9169 19.0408L58.8939 15.0639C59.2625 14.6954 59.8601 14.6953 60.2287 15.0639C60.5973 15.4325 60.5973 16.0303 60.2287 16.3989L56.2547 20.3727C57.2331 21.4333 58.1086 22.5902 58.8654 23.8277C60.1228 22.9353 61.6607 21.4554 62.7331 19.5256C63.9194 17.3909 64.5318 14.7226 63.5889 11.6438Z" fill="#FACC15"/>
<path d="M40.1052 2.00171C37.7571 3.24884 36.3566 5.04784 35.5622 6.9591C35.3946 7.36247 35.254 7.7709 35.1371 8.18014C35.0389 8.5241 34.9576 8.86842 34.8915 9.21031C34.5544 10.9545 34.6116 12.6371 34.8209 13.9052C36.2068 13.5668 37.6442 13.36 39.1191 13.2978V7.74003C39.1191 7.21873 39.5417 6.79614 40.063 6.79614C40.5843 6.79619 41.0069 7.21877 41.0069 7.74003V13.2978C42.5105 13.3612 43.975 13.5753 45.3859 13.9255C45.6392 12.4074 45.6754 10.2883 45.0734 8.18014C44.4028 5.83179 42.949 3.51206 40.1052 2.00171Z" fill="#FACC15"/>
<path d="M23.2034 11.9568C21.3127 11.1999 19.0868 10.9423 16.5911 11.7066C15.6482 14.7854 16.2606 17.4537 17.4469 19.5884C18.501 21.4853 20.0048 22.9478 21.25 23.8447C22.0081 22.6025 22.8856 21.4414 23.8668 20.3771L19.9513 16.4617C19.5827 16.0931 19.5827 15.4953 19.9513 15.1267C20.3199 14.7582 20.9175 14.7582 21.2861 15.1267L25.2044 19.045C26.2927 18.0497 27.4813 17.1623 28.7533 16.3996C27.9837 15.3227 26.7869 14.046 25.2487 13.0331C24.999 12.8686 24.7402 12.7111 24.4729 12.5625C24.0686 12.3378 23.6451 12.1336 23.2034 11.9568Z" fill="#FACC15"/>
<path d="M18.6769 30.0178C17.3759 29.7928 15.6387 29.7245 13.8435 30.0778C13.5501 30.1355 13.2552 30.2044 12.9603 30.2859C12.5145 30.409 12.0694 30.5603 11.6304 30.7438C9.7514 31.5291 7.98314 32.9055 6.73877 35.1999C7.16117 36.0122 7.65001 36.7128 8.1872 37.3153H18.13C18.0991 36.9741 18.076 36.6306 18.0608 36.285L12.4682 36.2362C11.947 36.2316 11.5282 35.8054 11.5327 35.2842C11.5373 34.7629 11.9635 34.344 12.4847 34.3485L18.0573 34.3971C18.1181 32.8936 18.3294 31.429 18.6769 30.0178Z" fill="#FACC15"/>
<path d="M64.3832 20.4426C63.1084 22.7366 61.2783 24.4642 59.7849 25.4879C60.216 26.3524 60.5917 27.2493 60.9078 28.1739C62.6714 27.8563 65.0987 27.7922 67.5396 28.4663C67.6624 28.5002 67.7852 28.5362 67.9081 28.574C69.2942 27.11 70.3452 25.1581 70.5689 22.5876C68.5721 20.9691 66.4467 20.3677 64.4375 20.3435L64.4367 20.3451L64.4184 20.3787C64.4067 20.4001 64.395 20.4214 64.3832 20.4426Z" fill="#FDE047"/>
<path d="M52.8305 4.53338C50.2143 4.78403 48.2474 5.88718 46.7871 7.32437C46.8225 7.43684 46.8564 7.54928 46.8885 7.66174C47.6068 10.1768 47.5372 12.684 47.208 14.4628C48.0674 14.7574 48.9029 15.1036 49.7106 15.4979C50.7298 13.9955 52.4705 12.1387 54.7902 10.8496C54.9016 10.7877 55.0144 10.7271 55.1285 10.6679C55.0911 8.65226 54.4726 6.52352 52.8305 4.53338Z" fill="#FDE047"/>
<path d="M27.3495 4.59618C25.7074 6.58633 25.0889 8.71506 25.0515 10.7307C25.1656 10.7899 25.2784 10.8505 25.3898 10.9124C27.6752 12.1824 29.3985 14.0035 30.4237 15.4938C31.2537 15.0892 32.1127 14.7348 32.9971 14.4354C32.6723 12.6583 32.6074 10.1638 33.3219 7.66174C33.3473 7.5729 33.3736 7.48401 33.401 7.39516C31.9399 5.95407 29.9705 4.8473 27.3495 4.59618Z" fill="#FDE047"/>
<path d="M15.7066 20.3426C13.6544 20.3388 11.4739 20.9297 9.42849 22.5876C9.65218 25.1581 10.7031 27.11 12.0892 28.574C12.2121 28.5362 12.335 28.5002 12.4578 28.4663C14.9549 27.7767 17.4378 27.8595 19.2104 28.1962C19.5257 27.2706 19.9007 26.3726 20.3312 25.507C18.8497 24.4782 17.0536 22.7669 15.7968 20.5054C15.7564 20.4328 15.7167 20.3596 15.6775 20.2858L15.6839 20.2983C15.6914 20.3131 15.699 20.3279 15.7066 20.3426Z" fill="#FDE047"/>
<path d="M41.6608 28.5931C42.0294 28.2245 42.6271 28.2245 42.9957 28.5931C43.3644 28.9617 43.3644 29.5595 42.9957 29.9281C41.8354 31.0885 40.5766 31.4019 39.4517 31.2069C38.4241 31.0287 37.6093 30.4454 37.1386 29.9388L37.0942 29.89L37.0626 29.853C36.7489 29.4645 36.7919 28.894 37.1682 28.5572C37.5567 28.2097 38.1534 28.2428 38.501 28.6312C38.7513 28.911 39.2262 29.2519 39.7742 29.3469C40.2582 29.4308 40.9082 29.3457 41.6608 28.5931Z" fill="#422006"/>
<path d="M31.3791 26.6177C31.9004 26.6177 32.323 27.0403 32.323 27.5616V29.3235C32.323 29.8448 31.9004 30.2674 31.3791 30.2674C30.8578 30.2674 30.4352 29.8448 30.4352 29.3235V27.5616C30.4352 27.0403 30.8578 26.6177 31.3791 26.6177Z" fill="#422006"/>
<path d="M48.7467 26.6177C49.268 26.6177 49.6906 27.0403 49.6906 27.5616V29.3235C49.6906 29.8448 49.268 30.2674 48.7467 30.2674C48.2254 30.2674 47.8028 29.8448 47.8028 29.3235V27.5616C47.8028 27.0403 48.2254 26.6177 48.7467 26.6177Z" fill="#422006"/>
</g>
<path d="M19.8154 58.4708C20.3685 58.4708 20.8259 58.6516 21.1876 59.0133C21.5705 59.3537 21.762 59.8005 21.762 60.3536C21.762 60.8855 21.5705 61.3322 21.1876 61.6939C20.8259 62.0343 20.3685 62.2045 19.8154 62.2045H9.44405C8.89091 62.2045 8.42288 62.0236 8.03993 61.662C7.67827 61.279 7.49744 60.811 7.49744 60.2579V41.8129C7.49744 41.2597 7.68891 40.8023 8.07185 40.4407C8.45479 40.0577 8.9441 39.8663 9.53979 39.8663C10.0504 39.8663 10.4971 40.0577 10.8801 40.4407C11.2843 40.8023 11.4864 41.2597 11.4864 41.8129V59.0133L10.7843 58.4708H19.8154ZM39.0579 39.8344C39.611 39.8344 40.0578 40.0258 40.3982 40.4088C40.7386 40.7704 40.9087 41.2278 40.9087 41.781V53.333C40.9087 55.0988 40.5258 56.6625 39.7599 58.024C39.0153 59.3856 37.9835 60.4493 36.6645 61.2152C35.3455 61.9811 33.8137 62.364 32.0692 62.364C30.3247 62.364 28.7823 61.9811 27.442 61.2152C26.123 60.4493 25.0805 59.3856 24.3147 58.024C23.57 56.6625 23.1977 55.0988 23.1977 53.333V41.781C23.1977 41.2278 23.3892 40.7704 23.7722 40.4088C24.1551 40.0258 24.6444 39.8344 25.2401 39.8344C25.7294 39.8344 26.1655 40.0258 26.5485 40.4088C26.9527 40.7704 27.1548 41.2278 27.1548 41.781V53.333C27.1548 54.3967 27.3782 55.3222 27.8249 56.1093C28.293 56.8752 28.8993 57.4709 29.6439 57.8964C30.4098 58.3219 31.2182 58.5346 32.0692 58.5346C32.984 58.5346 33.835 58.3219 34.6221 57.8964C35.4093 57.4709 36.0475 56.8752 36.5368 56.1093C37.0262 55.3222 37.2708 54.3967 37.2708 53.333V41.781C37.2708 41.2278 37.4304 40.7704 37.7495 40.4088C38.0686 40.0258 38.5047 39.8344 39.0579 39.8344ZM46.1128 39.8344C46.4107 39.8344 46.7192 39.9195 47.0383 40.0897C47.3787 40.2386 47.634 40.4407 47.8042 40.696L55.5587 52.631L53.9631 52.5671L61.9091 40.696C62.3134 40.1216 62.8346 39.8344 63.4728 39.8344C63.9834 39.8344 64.4408 40.0152 64.845 40.3769C65.2492 40.7385 65.4513 41.2066 65.4513 41.781V60.2579C65.4513 60.811 65.2705 61.279 64.9088 61.662C64.5472 62.0236 64.0685 62.2045 63.4728 62.2045C62.8771 62.2045 62.3878 62.0236 62.0049 61.662C61.6432 61.279 61.4624 60.811 61.4624 60.2579V45.2274L62.7069 45.5146L56.1969 55.4392C56.0055 55.6732 55.7608 55.8753 55.463 56.0455C55.1864 56.2157 54.8992 56.2902 54.6014 56.2689C54.3248 56.2902 54.0376 56.2157 53.7397 56.0455C53.4632 55.8753 53.2292 55.6732 53.0377 55.4392L46.9426 45.8018L47.7723 44.1105V60.2579C47.7723 60.811 47.6021 61.279 47.2617 61.662C46.9213 62.0236 46.4745 62.2045 45.9214 62.2045C45.3895 62.2045 44.9534 62.0236 44.613 61.662C44.2726 61.279 44.1024 60.811 44.1024 60.2579V41.781C44.1024 41.2491 44.2939 40.7917 44.6768 40.4088C45.081 40.0258 45.5597 39.8344 46.1128 39.8344ZM72.6422 60.2579C72.6422 60.811 72.4401 61.279 72.0359 61.662C71.6317 62.0236 71.1636 62.2045 70.6318 62.2045C70.0361 62.2045 69.5574 62.0236 69.1957 61.662C68.8341 61.279 68.6532 60.811 68.6532 60.2579V41.8129C68.6532 41.2597 68.8447 40.8023 69.2276 40.4407C69.6106 40.0577 70.0999 39.8663 70.6956 39.8663C71.2062 39.8663 71.6529 40.0577 72.0359 40.4407C72.4401 40.8023 72.6422 41.2597 72.6422 41.8129V60.2579Z" fill="#116932"/>
<defs>
<filter id="filter0_f_197_33121" x="0.545364" y="-0.755112" width="78.9093" height="62.234" filterUnits="userSpaceOnUse" color-interpolation-filters="sRGB">
<feFlood flood-opacity="0" result="BackgroundImageFix"/>
<feBlend mode="normal" in="SourceGraphic" in2="BackgroundImageFix" result="shape"/>
<feGaussianBlur stdDeviation="0.377556" result="effect1_foregroundBlur_197_33121"/>
</filter>
</defs>
</svg>
