<svg width="51" height="19" viewBox="0 0 51 19" fill="none" xmlns="http://www.w3.org/2000/svg">
<path d="M24.7349 9.42678C25.1587 9.42678 25.5011 9.57342 25.7619 9.86684C26.0227 10.1439 26.1531 10.4944 26.1531 10.9182V11.2116C26.1531 12.5646 25.8597 13.7627 25.2729 14.806C24.7024 15.8492 23.9117 16.6642 22.9011 17.2511C21.8904 17.8379 20.7168 18.1313 19.3801 18.1313C18.0435 18.1313 16.8616 17.8379 15.8346 17.2511C14.824 16.6643 14.0253 15.8492 13.4385 14.806C12.8679 13.7627 12.5827 12.5646 12.5827 11.2116V10.9182C12.5827 10.4944 12.7293 10.1439 13.0227 9.86684C13.3161 9.57343 13.6911 9.42679 14.1475 9.42678C14.5224 9.42678 14.8566 9.57344 15.15 9.86684C15.4597 10.1439 15.6145 10.4944 15.6146 10.9182V11.2116C15.6146 12.0266 15.7857 12.7358 16.1281 13.3389C16.4867 13.9257 16.9513 14.3821 17.5218 14.7081C18.1086 15.0341 18.7281 15.1971 19.3801 15.1971C20.0811 15.1971 20.7331 15.0341 21.3362 14.7081C21.9393 14.3821 22.4284 13.9257 22.8033 13.3389C23.1782 12.7358 23.3657 12.0266 23.3657 11.2116V10.9182C23.3657 10.4944 23.488 10.1439 23.7325 9.86684C23.977 9.57346 24.3111 9.42679 24.7349 9.42678Z" fill="#242424"/>
<path d="M2.06482 0.893103C2.45604 0.893103 2.79842 1.03984 3.09184 1.33325C3.40155 1.61037 3.55638 1.96085 3.55638 2.38466V15.1483H9.93818C10.362 15.1483 10.7125 15.2868 10.9896 15.5639C11.283 15.8247 11.4297 16.167 11.4297 16.5909C11.4297 16.9984 11.283 17.3408 10.9896 17.6179C10.7125 17.8787 10.362 18.0091 9.93818 18.0091H1.99156C1.56774 18.0091 1.20908 17.8705 0.915666 17.5934C0.638551 17.3 0.5 16.9413 0.5 16.5175V2.38466C0.500003 1.96084 0.646738 1.61037 0.94015 1.33325C1.23355 1.03987 1.60843 0.893113 2.06482 0.893103Z" fill="#242424"/>
<path d="M43.4743 0.868713C43.8655 0.868718 44.216 1.00727 44.5257 1.28438C44.8354 1.56148 44.9902 1.92008 44.9902 2.36018V16.5175C44.9902 16.9413 44.8517 17.3 44.5745 17.5934C44.2974 17.8705 43.9307 18.0091 43.4743 18.0091C43.0178 18.0091 42.6429 17.8705 42.3495 17.5934C42.0724 17.3 41.9338 16.9413 41.9338 16.5175V6.67476L37.8993 12.8254C37.7526 13.0047 37.5651 13.1595 37.3369 13.2899C37.125 13.4203 36.905 13.4774 36.6768 13.4611C36.4649 13.4774 36.2448 13.4203 36.0166 13.2899C35.8047 13.1595 35.6254 13.0047 35.4787 12.8254L31.4442 6.44621V16.5175C31.4442 16.9413 31.3138 17.3 31.053 17.5934C30.7922 17.8705 30.4499 18.0091 30.026 18.0091C29.6185 18.0091 29.2843 17.8705 29.0235 17.5934C28.7627 17.3 28.6323 16.9413 28.6323 16.5175V2.36018C28.6323 1.9527 28.779 1.60226 29.0724 1.30886C29.3821 1.01545 29.7489 0.868713 30.1728 0.868713C30.401 0.868717 30.6374 0.933901 30.8819 1.0643C31.1426 1.1784 31.3382 1.33326 31.4686 1.52884L36.792 9.722L42.2761 1.52884C42.5859 1.08874 42.9852 0.868713 43.4743 0.868713Z" fill="#242424"/>
<path d="M49.0084 0.893103C49.3997 0.893103 49.742 1.03986 50.0354 1.33325C50.3451 1.61037 50.5 1.96084 50.5 2.38466V16.5175C50.5 16.9413 50.3451 17.3 50.0354 17.5934C49.7257 17.8705 49.3671 18.009 48.9596 18.0091C48.5032 18.0091 48.1364 17.8705 47.8593 17.5934C47.5822 17.3 47.4435 16.9413 47.4435 16.5175V2.38466C47.4435 1.96085 47.5903 1.61037 47.8837 1.33325C48.1771 1.03984 48.552 0.893106 49.0084 0.893103Z" fill="#242424"/>
<path d="M14.0652 3.25526C14.864 3.25526 15.5116 3.90286 15.5116 4.70171V6.14816C15.5116 6.94701 14.864 7.59461 14.0652 7.59461C13.2663 7.59461 12.6187 6.94701 12.6187 6.14816V4.70171C12.6187 3.90286 13.2663 3.25526 14.0652 3.25526Z" fill="#242424"/>
<path d="M24.7689 3.25526C25.5678 3.25526 26.2154 3.90286 26.2154 4.70171V6.14816C26.2154 6.94701 25.5678 7.59461 24.7689 7.59461C23.9701 7.59461 23.3225 6.94701 23.3225 6.14816V4.70171C23.3225 3.90286 23.9701 3.25526 24.7689 3.25526Z" fill="#242424"/>
</svg>
