<svg width="14" height="16" viewBox="0 0 14 16" fill="none" xmlns="http://www.w3.org/2000/svg">
<g opacity="0.5">
<mask id="path-1-inside-1_1876_4779" fill="white">
<path fill-rule="evenodd" clip-rule="evenodd" d="M7.02829 1.36003C7.15217 1.1512 7.08329 0.881489 6.87446 0.757617C6.66563 0.633745 6.39592 0.702619 6.27205 0.911449L0.290931 10.9947C0.167062 11.2036 0.235933 11.4733 0.444763 11.5972C0.653593 11.721 0.92331 11.6522 1.04718 11.4433L3.48448 7.33439L6.47504 2.29274L7.02829 1.36003Z"/>
</mask>
<path fill-rule="evenodd" clip-rule="evenodd" d="M7.02829 1.36003C7.15217 1.1512 7.08329 0.881489 6.87446 0.757617C6.66563 0.633745 6.39592 0.702619 6.27205 0.911449L0.290931 10.9947C0.167062 11.2036 0.235933 11.4733 0.444763 11.5972C0.653593 11.721 0.92331 11.6522 1.04718 11.4433L3.48448 7.33439L6.47504 2.29274L7.02829 1.36003Z" fill="#242424"/>
<path d="M7.02829 1.36003L8.3184 2.12529C8.86491 1.20395 8.56106 0.0140174 7.63972 -0.532493L6.87446 0.757617L6.10921 2.04773C5.60553 1.74896 5.43942 1.09846 5.73818 0.594777L7.02829 1.36003ZM6.87446 0.757617L7.63972 -0.532493C6.71838 -1.079 5.52845 -0.775145 4.98194 0.146194L6.27205 0.911449L7.56216 1.6767C7.26339 2.18038 6.61288 2.34649 6.10921 2.04773L6.87446 0.757617ZM6.27205 0.911449L4.98194 0.146194L-0.999179 10.2295L0.290931 10.9947L1.58104 11.76L7.56216 1.6767L6.27205 0.911449ZM0.290931 10.9947L-0.999179 10.2295C-1.54568 11.1508 -1.24184 12.3408 -0.320492 12.8873L0.444763 11.5972L1.21002 10.3071C1.71371 10.6058 1.8798 11.2563 1.58104 11.76L0.290931 10.9947ZM0.444763 11.5972L-0.320492 12.8873C0.600857 13.4338 1.79079 13.1299 2.33729 12.2086L1.04718 11.4433L-0.242932 10.6781C0.0558314 10.1744 0.706329 10.0083 1.21002 10.3071L0.444763 11.5972ZM1.04718 11.4433L2.33729 12.2086L4.77459 8.09964L3.48448 7.33439L2.19437 6.56913L-0.242932 10.6781L1.04718 11.4433ZM3.48448 7.33439L4.77459 8.09964L7.76515 3.05799L6.47504 2.29274L5.18493 1.52748L2.19437 6.56913L3.48448 7.33439ZM6.47504 2.29274L7.76515 3.05799L8.3184 2.12529L7.02829 1.36003L5.73818 0.594777L5.18493 1.52748L6.47504 2.29274Z" fill="black" mask="url(#path-1-inside-1_1876_4779)"/>
</g>
<path d="M9.95188 4.54133L9.79295 4.33439C9.19199 3.55185 8.37639 2.961 7.44553 2.63383L6.47511 2.29276L3.48456 7.33439L4.45497 7.67548C5.38583 8.00265 6.20142 8.59351 6.80239 9.37603C7.45367 10.224 8.35555 10.8452 9.38002 11.1514L9.43796 11.1687C9.77727 11.2701 10.1181 11.0149 10.1163 10.6608L10.1074 8.8827C10.1054 8.49364 10.1044 8.29909 10.1765 8.13091C10.2067 8.06079 10.2458 7.99486 10.2929 7.93478C10.4059 7.79084 10.5771 7.69844 10.9195 7.51362L12.2013 6.82164C12.5368 6.64052 12.4858 6.1442 12.1205 6.03503C11.2586 5.77745 10.4998 5.25481 9.95188 4.54133Z" fill="#242424"/>
</svg>
