<svg width="15" height="15" viewBox="0 0 15 15" fill="none" xmlns="http://www.w3.org/2000/svg">
<path d="M9.24682 2.14025C9.27139 2.13853 9.29682 2.13972 9.32096 2.14367C9.32198 2.14385 9.32349 2.14406 9.32579 2.14487C9.32873 2.14592 9.33531 2.14933 9.34681 2.15562C9.37192 2.16936 9.4159 2.19772 9.48483 2.25778C9.6339 2.38773 9.81563 2.58571 10.1145 2.91344L13.2589 6.36168C13.5581 6.68978 13.7381 6.88946 13.8538 7.04995C13.9072 7.1241 13.9325 7.16958 13.9438 7.19585C13.9491 7.20809 13.9508 7.21576 13.9516 7.2187C13.9522 7.22115 13.9523 7.22256 13.9523 7.22362C13.954 7.24807 13.9529 7.27276 13.949 7.29678C13.9488 7.29784 13.9486 7.29916 13.9478 7.30162C13.9468 7.30444 13.9442 7.31124 13.938 7.32267C13.9243 7.34778 13.895 7.39168 13.8349 7.46065C13.7049 7.60979 13.5071 7.79221 13.1792 8.09128C12.8511 8.39045 12.6514 8.57049 12.4909 8.6862C12.4171 8.73942 12.3713 8.76385 12.345 8.77529C12.3328 8.78058 12.3251 8.78326 12.3221 8.78401C12.3197 8.7846 12.3183 8.78468 12.3172 8.78476C12.2928 8.78646 12.2681 8.78532 12.244 8.78139C12.243 8.78121 12.2417 8.78105 12.2392 8.78018C12.2364 8.77918 12.2298 8.77576 12.2182 8.76944C12.1931 8.7557 12.1491 8.72737 12.0802 8.66727C11.931 8.53728 11.7487 8.33965 11.4495 8.01157L10.2379 6.68289L6.47438 10.1148L7.68598 11.4435C7.98517 11.7716 8.16518 11.9713 8.2809 12.1318C8.33439 12.206 8.35856 12.2523 8.36993 12.2786C8.37515 12.2907 8.37796 12.2976 8.3787 12.3005C8.37933 12.303 8.37937 12.3044 8.37945 12.3054C8.38117 12.3299 8.38001 12.3545 8.37608 12.3786C8.37591 12.3796 8.3757 12.3811 8.37488 12.3834C8.37387 12.3863 8.37049 12.3937 8.36409 12.4054C8.35028 12.4306 8.32174 12.4739 8.26197 12.5425C8.132 12.6916 7.9343 12.874 7.60626 13.1731C7.27832 13.4721 7.07844 13.6523 6.91798 13.768C6.84378 13.8215 6.79737 13.8467 6.77111 13.858C6.75916 13.8632 6.75216 13.8651 6.74924 13.8658C6.74671 13.8665 6.74538 13.8665 6.74432 13.8666C6.71983 13.8683 6.69522 13.8671 6.67115 13.8632C6.6701 13.863 6.66872 13.8628 6.66632 13.862C6.66346 13.861 6.65598 13.8586 6.64429 13.8522C6.61917 13.8384 6.5762 13.8091 6.50729 13.7491C6.43271 13.6841 6.34971 13.6024 6.24817 13.4957L5.87665 13.0934L2.73227 9.64515C2.43341 9.31741 2.25299 9.11825 2.13731 8.95785C2.08382 8.88366 2.05964 8.83728 2.04827 8.81102C2.04305 8.79895 2.04027 8.79212 2.03951 8.78911C2.0389 8.78672 2.03884 8.78522 2.03875 8.78418C2.03703 8.75966 2.03822 8.73415 2.04217 8.71004C2.04235 8.70903 2.04257 8.70749 2.04337 8.70521C2.04443 8.70225 2.04785 8.69565 2.05412 8.6842C2.06787 8.65909 2.09624 8.61508 2.15628 8.54618C2.28623 8.3971 2.48421 8.21538 2.81194 7.91652C3.1401 7.61728 3.33977 7.43633 3.50027 7.32063C3.57443 7.26716 3.62087 7.24295 3.6471 7.23159C3.6591 7.22641 3.66607 7.22453 3.66897 7.2238C3.67157 7.22314 3.67281 7.22312 3.67389 7.22305L3.74705 7.22642C3.74809 7.22659 3.74951 7.2268 3.75189 7.22762C3.75473 7.22862 3.76223 7.23104 3.77392 7.23743C3.79899 7.25117 3.84228 7.27973 3.91096 7.33955C4.06013 7.46953 4.24232 7.66808 4.54155 7.99624L5.00781 8.50653L5.51311 9.06065L9.27667 5.62873L8.77137 5.0746L8.30614 4.56338C8.0069 4.23523 7.82597 4.03557 7.71024 3.87506C7.65702 3.80121 7.63255 3.75546 7.62116 3.7292C7.61586 3.71697 7.61416 3.7093 7.61341 3.70636C7.61279 3.70384 7.61274 3.70251 7.61266 3.70144C7.61096 3.67705 7.61208 3.6524 7.61604 3.62827C7.61622 3.62722 7.61637 3.62587 7.61724 3.62344C7.61826 3.62055 7.62079 3.61377 7.62701 3.60238C7.64074 3.57728 7.66911 3.5333 7.72917 3.46436C7.85917 3.31518 8.0577 3.133 8.38585 2.83377C8.71381 2.53472 8.91368 2.35454 9.07413 2.23885C9.14806 2.18557 9.19375 2.16115 9.21999 2.14977C9.23193 2.1446 9.23885 2.14179 9.2419 2.14101C9.24424 2.14041 9.24581 2.14034 9.24682 2.14025Z" fill="#116932" stroke="#116932" stroke-width="1.5"/>
<path fill-rule="evenodd" clip-rule="evenodd" d="M11.959 1.49114C12.163 1.30507 12.4792 1.31964 12.6653 1.52369L14.6372 3.68611C14.8232 3.89016 14.8087 4.2064 14.6046 4.39247C14.4006 4.57853 14.0844 4.56396 13.8983 4.35992L11.9264 2.1975C11.7404 1.99345 11.7549 1.6772 11.959 1.49114ZM1.14609 11.3503C1.35014 11.1643 1.66639 11.1789 1.85245 11.3829L3.82432 13.5453C4.01038 13.7494 3.99581 14.0656 3.79176 14.2517C3.58772 14.4378 3.27147 14.4232 3.08541 14.2191L1.11354 12.0567C0.927472 11.8527 0.942049 11.5364 1.14609 11.3503Z" fill="#116932"/>
</svg>
