<svg width="17" height="17" viewBox="0 0 17 17" fill="none" xmlns="http://www.w3.org/2000/svg">
<path d="M4.39941 8.79964H10.3994C11.1067 8.79964 11.7849 9.08059 12.285 9.58069C12.7851 10.0808 13.0661 10.7591 13.0661 11.4663C13.0661 12.1736 12.7851 12.8518 12.285 13.3519C11.7849 13.852 11.1067 14.133 10.3994 14.133H5.06608C4.88927 14.133 4.7197 14.0627 4.59468 13.9377C4.46965 13.8127 4.39941 13.6431 4.39941 13.4663V4.13298C4.39941 3.95616 4.46965 3.7866 4.59468 3.66157C4.7197 3.53655 4.88927 3.46631 5.06608 3.46631H9.73275C10.44 3.46631 11.1183 3.74726 11.6184 4.24736C12.1185 4.74745 12.3994 5.42573 12.3994 6.13298C12.3994 6.84022 12.1185 7.5185 11.6184 8.01859C11.1183 8.51869 10.44 8.79964 9.73275 8.79964" stroke="#09090B" stroke-width="1.33333" stroke-linecap="round" stroke-linejoin="round"/>
</svg>
